<svg width="23" height="23" viewBox="0 0 23 23" fill="none" xmlns="http://www.w3.org/2000/svg">
<path d="M22.1977 20.593H0.802326C0.363721 20.593 0 20.9568 0 21.3954C0 21.834 0.363721 22.1977 0.802326 22.1977H22.1977C22.6363 22.1977 23 21.834 23 21.3954C23 20.9568 22.6363 20.593 22.1977 20.593Z" fill="white"/>
<path d="M22.1977 20.593H0.802326C0.363721 20.593 0 20.9568 0 21.3954C0 21.834 0.363721 22.1977 0.802326 22.1977H22.1977C22.6363 22.1977 23 21.834 23 21.3954C23 20.9568 22.6363 20.593 22.1977 20.593Z" fill="white"/>
<path d="M16.8488 0H6.15114C2.94184 0 1.87207 1.91488 1.87207 4.27907V21.3953H8.29068V14.9126C8.29068 14.3563 8.73998 13.907 9.29626 13.907H13.7144C14.26 13.907 14.72 14.3563 14.72 14.9126V21.3953H21.1386V4.27907C21.1279 1.91488 20.0581 0 16.8488 0ZM14.1744 7.75581H12.3023V9.62791C12.3023 10.0665 11.9386 10.4302 11.5 10.4302C11.0614 10.4302 10.6977 10.0665 10.6977 9.62791V7.75581H8.82556C8.38695 7.75581 8.02323 7.39209 8.02323 6.95349C8.02323 6.51488 8.38695 6.15116 8.82556 6.15116H10.6977V4.27907C10.6977 3.84047 11.0614 3.47674 11.5 3.47674C11.9386 3.47674 12.3023 3.84047 12.3023 4.27907V6.15116H14.1744C14.613 6.15116 14.9767 6.51488 14.9767 6.95349C14.9767 7.39209 14.613 7.75581 14.1744 7.75581Z" fill="white"/>
<path d="M16.8488 0H6.15114C2.94184 0 1.87207 1.91488 1.87207 4.27907V21.3953H8.29068V14.9126C8.29068 14.3563 8.73998 13.907 9.29626 13.907H13.7144C14.26 13.907 14.72 14.3563 14.72 14.9126V21.3953H21.1386V4.27907C21.1279 1.91488 20.0581 0 16.8488 0ZM14.1744 7.75581H12.3023V9.62791C12.3023 10.0665 11.9386 10.4302 11.5 10.4302C11.0614 10.4302 10.6977 10.0665 10.6977 9.62791V7.75581H8.82556C8.38695 7.75581 8.02323 7.39209 8.02323 6.95349C8.02323 6.51488 8.38695 6.15116 8.82556 6.15116H10.6977V4.27907C10.6977 3.84047 11.0614 3.47674 11.5 3.47674C11.9386 3.47674 12.3023 3.84047 12.3023 4.27907V6.15116H14.1744C14.613 6.15116 14.9767 6.51488 14.9767 6.95349C14.9767 7.39209 14.613 7.75581 14.1744 7.75581Z" fill="white"/>
</svg>
