<svg width="25" height="25" viewBox="0 0 25 25" fill="none" xmlns="http://www.w3.org/2000/svg">
<path d="M12.64 14.2791C12.6168 14.2791 12.5819 14.2791 12.5586 14.2791C12.5238 14.2791 12.4772 14.2791 12.4424 14.2791C9.80279 14.1977 7.82605 12.1395 7.82605 9.60463C7.82605 7.02324 9.9307 4.91859 12.5121 4.91859C15.0935 4.91859 17.1982 7.02324 17.1982 9.60463C17.1866 12.1512 15.1982 14.1977 12.6749 14.2791C12.6517 14.2791 12.6517 14.2791 12.64 14.2791ZM12.5005 6.65114C10.8726 6.65114 9.55861 7.97673 9.55861 9.59301C9.55861 11.1861 10.8028 12.4767 12.3842 12.5349C12.4191 12.5233 12.5354 12.5233 12.6517 12.5349C14.2098 12.4535 15.4307 11.1744 15.4424 9.59301C15.4424 7.97673 14.1284 6.65114 12.5005 6.65114Z" fill="white"/>
<path d="M12.5009 25.0001C9.37297 25.0001 6.3846 23.8373 4.07064 21.7211C3.86134 21.535 3.76832 21.2559 3.79157 20.9885C3.94274 19.6048 4.8032 18.3141 6.23343 17.3606C9.69855 15.0583 15.3148 15.0583 18.7683 17.3606C20.1985 18.3257 21.059 19.6048 21.2102 20.9885C21.2451 21.2676 21.1404 21.535 20.9311 21.7211C18.6171 23.8373 15.6288 25.0001 12.5009 25.0001ZM5.61716 20.7559C7.54739 22.3722 9.97762 23.2559 12.5009 23.2559C15.0241 23.2559 17.4544 22.3722 19.3846 20.7559C19.1753 20.0466 18.6171 19.3606 17.7916 18.8024C14.9311 16.8955 10.0823 16.8955 7.19855 18.8024C6.37297 19.3606 5.82646 20.0466 5.61716 20.7559Z" fill="white"/>
<path d="M12.5 25C5.60465 25 0 19.3953 0 12.5C0 5.60465 5.60465 0 12.5 0C19.3953 0 25 5.60465 25 12.5C25 19.3953 19.3953 25 12.5 25ZM12.5 1.74419C6.56977 1.74419 1.74419 6.56977 1.74419 12.5C1.74419 18.4302 6.56977 23.2558 12.5 23.2558C18.4302 23.2558 23.2558 18.4302 23.2558 12.5C23.2558 6.56977 18.4302 1.74419 12.5 1.74419Z" fill="white"/>
</svg>
