<svg width="32" height="24" viewBox="0 0 32 24" fill="none" xmlns="http://www.w3.org/2000/svg">
<path d="M14.343 23.8261C13.3425 23.8261 12.2889 23.5771 11.1999 23.0976C10.1375 22.6273 9.06617 21.9818 8.02144 21.198C6.98556 20.4049 5.98509 19.5197 5.03774 18.5514C4.09925 17.5647 3.2493 16.5227 2.49674 15.453C1.73532 14.3465 1.12442 13.2399 0.690587 12.1702C0.230196 11.0267 0 9.92016 0 8.87814C0 8.15887 0.123952 7.47648 0.363001 6.8402C0.610904 6.18548 1.00932 5.57687 1.54939 5.05124C2.23113 4.35041 3.01025 4 3.8425 4C4.18779 4 4.54194 4.08299 4.84296 4.23054C5.18826 4.39652 5.48043 4.6455 5.69292 4.97747L7.74697 7.99288C7.9329 8.2603 8.07456 8.5185 8.17195 8.7767C8.28705 9.05335 8.34902 9.32999 8.34902 9.59741C8.34902 9.94783 8.25163 10.289 8.0657 10.6118C7.9329 10.8607 7.72926 11.1282 7.47251 11.3956L6.87046 12.0503C6.87931 12.078 6.88816 12.0964 6.89702 12.1149C7.00326 12.3085 7.21575 12.6405 7.62302 13.1384C8.05685 13.6548 8.46412 14.1251 8.87139 14.5585C9.39376 15.0934 9.82759 15.5176 10.2349 15.868C10.7395 16.3106 11.0671 16.5319 11.2619 16.6334L11.2442 16.6795L11.8905 16.0155C12.165 15.7297 12.4306 15.5176 12.6873 15.3793C13.1743 15.0657 13.794 15.0104 14.4138 15.2778C14.644 15.3793 14.8919 15.5176 15.1575 15.7112L18.0969 17.8875C18.4245 18.118 18.6636 18.4131 18.8052 18.7635C18.938 19.1139 19 19.4367 19 19.7594C19 20.2021 18.9026 20.6447 18.7167 21.0597C18.5308 21.4746 18.3006 21.8343 18.0084 22.1662C17.5037 22.7472 16.9548 23.1621 16.3173 23.4296C15.7064 23.6878 15.0424 23.8261 14.343 23.8261ZM3.8425 5.38322C3.35555 5.38322 2.90401 5.60453 2.47018 6.04716C2.06291 6.44368 1.77959 6.87709 1.60252 7.34738C1.41659 7.8269 1.32805 8.33407 1.32805 8.87814C1.32805 9.73573 1.52283 10.6671 1.9124 11.6261C2.31081 12.6036 2.86859 13.618 3.57689 14.6323C4.28518 15.6467 5.09087 16.6334 5.97624 17.5647C6.8616 18.4777 7.8178 19.326 8.80056 20.073C9.75676 20.8015 10.7395 21.3916 11.7134 21.8158C13.2274 22.489 14.644 22.6457 15.8127 22.1386C16.2642 21.9449 16.6626 21.6498 17.0256 21.2256C17.2293 20.9951 17.3886 20.7461 17.5214 20.451C17.6277 20.2205 17.6808 19.9807 17.6808 19.741C17.6808 19.5934 17.6542 19.4459 17.5834 19.2799C17.5569 19.2246 17.5037 19.1232 17.3355 19.0033L14.3961 16.827C14.219 16.6979 14.0596 16.6057 13.9091 16.5412C13.7144 16.4582 13.6347 16.3752 13.3336 16.5688C13.1566 16.661 12.9972 16.7994 12.8201 16.9838L12.1473 17.6754C11.802 18.0258 11.2707 18.1088 10.8635 17.952L10.6244 17.8414C10.2614 17.6385 9.83644 17.325 9.3672 16.91C8.94222 16.5319 8.48183 16.0893 7.92404 15.5176C7.49021 15.0565 7.05638 14.5678 6.60485 14.0237C6.18872 13.5165 5.8877 13.0831 5.70177 12.7235L5.59553 12.4468C5.5424 12.2347 5.5247 12.1149 5.5247 11.9858C5.5247 11.6538 5.6398 11.3587 5.86114 11.1282L6.52516 10.4089C6.70224 10.2245 6.83504 10.0493 6.92358 9.8925C6.99441 9.77262 7.02097 9.67118 7.02097 9.57897C7.02097 9.5052 6.99441 9.39454 6.95014 9.28388C6.88816 9.13634 6.79077 8.97035 6.66682 8.79515L4.61277 5.77052C4.52423 5.64142 4.41799 5.5492 4.28518 5.48465C4.14352 5.4201 3.99301 5.38322 3.8425 5.38322ZM11.2442 16.6887L11.1025 17.3158L11.3416 16.6703C11.2973 16.661 11.2619 16.6703 11.2442 16.6887Z" fill="white"/>
<path d="M31 12.0602H18.4699C18.213 12.0602 18 12.2733 18 12.5301C18 12.787 18.213 13 18.4699 13H31C31.2569 13 31.4699 12.787 31.4699 12.5301C31.4699 12.2733 31.2569 12.0602 31 12.0602Z" fill="white"/>
<path d="M31 12.0602H18.4699C18.213 12.0602 18 12.2733 18 12.5301C18 12.787 18.213 13 18.4699 13H31C31.2569 13 31.4699 12.787 31.4699 12.5301C31.4699 12.2733 31.2569 12.0602 31 12.0602Z" fill="white"/>
<path d="M27.8675 0H21.6025C19.7229 0 19.0964 1.12145 19.0964 2.50602V12.5301H22.8555V8.73349C22.8555 8.40771 23.1186 8.14458 23.4444 8.14458H26.0319C26.3514 8.14458 26.6208 8.40771 26.6208 8.73349V12.5301H30.3798V2.50602C30.3735 1.12145 29.747 0 27.8675 0ZM26.3013 4.54217H25.2049V5.63855C25.2049 5.89542 24.9919 6.10843 24.735 6.10843C24.4781 6.10843 24.2651 5.89542 24.2651 5.63855V4.54217H23.1687C22.9119 4.54217 22.6988 4.32916 22.6988 4.07229C22.6988 3.81542 22.9119 3.60241 23.1687 3.60241H24.2651V2.50602C24.2651 2.24916 24.4781 2.03614 24.735 2.03614C24.9919 2.03614 25.2049 2.24916 25.2049 2.50602V3.60241H26.3013C26.5581 3.60241 26.7711 3.81542 26.7711 4.07229C26.7711 4.32916 26.5581 4.54217 26.3013 4.54217Z" fill="white"/>
<path d="M27.8675 0H21.6025C19.7229 0 19.0964 1.12145 19.0964 2.50602V12.5301H22.8555V8.73349C22.8555 8.40771 23.1186 8.14458 23.4444 8.14458H26.0319C26.3514 8.14458 26.6208 8.40771 26.6208 8.73349V12.5301H30.3798V2.50602C30.3735 1.12145 29.747 0 27.8675 0ZM26.3013 4.54217H25.2049V5.63855C25.2049 5.89542 24.9919 6.10843 24.735 6.10843C24.4781 6.10843 24.2651 5.89542 24.2651 5.63855V4.54217H23.1687C22.9119 4.54217 22.6988 4.32916 22.6988 4.07229C22.6988 3.81542 22.9119 3.60241 23.1687 3.60241H24.2651V2.50602C24.2651 2.24916 24.4781 2.03614 24.735 2.03614C24.9919 2.03614 25.2049 2.24916 25.2049 2.50602V3.60241H26.3013C26.5581 3.60241 26.7711 3.81542 26.7711 4.07229C26.7711 4.32916 26.5581 4.54217 26.3013 4.54217Z" fill="white"/>
</svg>
