<svg width="23" height="24" viewBox="0 0 23 24" fill="none" xmlns="http://www.w3.org/2000/svg">
<path d="M17.3625 24C16.1514 24 14.876 23.6986 13.5578 23.1181C12.2717 22.5488 10.9748 21.7674 9.71016 20.8186C8.4562 19.8586 7.24511 18.787 6.09832 17.6149C4.96226 16.4205 3.93336 15.1591 3.02237 13.8642C2.10065 12.5247 1.36114 11.1851 0.835974 9.89023C0.278658 8.50605 0 7.16651 0 5.90512C0 5.03442 0.150047 4.20837 0.439422 3.43814C0.739515 2.64558 1.22181 1.90884 1.87558 1.27256C2.70084 0.424186 3.64399 0 4.65145 0C5.06943 0 5.49814 0.100465 5.86254 0.27907C6.28052 0.48 6.6342 0.781395 6.89143 1.18326L9.37791 4.83349C9.60298 5.15721 9.77446 5.46977 9.89236 5.78233C10.0317 6.11721 10.1067 6.45209 10.1067 6.77581C10.1067 7.2 9.98882 7.61302 9.76375 8.00372C9.60298 8.30512 9.35648 8.62884 9.04567 8.95256L8.31687 9.74512C8.32759 9.7786 8.3383 9.80093 8.34902 9.82326C8.47763 10.0577 8.73486 10.4595 9.22787 11.0623C9.75303 11.6874 10.246 12.2567 10.7391 12.7814C11.3714 13.4288 11.8966 13.9423 12.3896 14.3665C13.0005 14.9023 13.397 15.1702 13.6328 15.293L13.6114 15.3488L14.3938 14.5451C14.726 14.1991 15.0475 13.9423 15.3583 13.7749C15.9478 13.3953 16.698 13.3284 17.4483 13.6521C17.7269 13.7749 18.027 13.9423 18.3486 14.1767L21.9068 16.8112C22.3034 17.0902 22.5927 17.4474 22.7642 17.8716C22.925 18.2958 23 18.6865 23 19.0772C23 19.613 22.8821 20.1488 22.657 20.6512C22.432 21.1535 22.1533 21.5888 21.7996 21.9907C21.1887 22.694 20.5242 23.1963 19.7526 23.52C19.013 23.8326 18.2092 24 17.3625 24ZM4.65145 1.67442C4.06198 1.67442 3.51538 1.94233 2.99021 2.47814C2.4972 2.95814 2.15424 3.48279 1.93989 4.05209C1.71482 4.63256 1.60764 5.24651 1.60764 5.90512C1.60764 6.94326 1.84343 8.0707 2.315 9.23163C2.7973 10.4149 3.47251 11.6428 4.32992 12.8707C5.18733 14.0986 6.16263 15.293 7.23439 16.4205C8.30615 17.5256 9.46365 18.5526 10.6533 19.4567C11.8108 20.3386 13.0005 21.053 14.1794 21.5665C16.0121 22.3814 17.7269 22.5712 19.1417 21.9572C19.6883 21.7228 20.1706 21.3656 20.61 20.8521C20.8565 20.573 21.0494 20.2716 21.2102 19.9144C21.3388 19.6353 21.4031 19.3451 21.4031 19.0549C21.4031 18.8763 21.3709 18.6977 21.2852 18.4967C21.253 18.4298 21.1887 18.307 20.9851 18.1619L17.4268 15.5274C17.2125 15.3712 17.0196 15.2595 16.8374 15.1814C16.6016 15.0809 16.5051 14.9805 16.1407 15.2149C15.9264 15.3265 15.7335 15.494 15.5191 15.7172L14.7046 16.5544C14.2866 16.9786 13.6435 17.0791 13.1505 16.8893L12.8611 16.7553C12.4217 16.5098 11.9073 16.1302 11.3392 15.6279C10.8248 15.1702 10.2675 14.6344 9.59227 13.9423C9.0671 13.3842 8.54194 12.7926 7.99534 12.134C7.49161 11.52 7.12721 10.9953 6.90214 10.56L6.77353 10.2251C6.70923 9.96837 6.68779 9.82326 6.68779 9.66698C6.68779 9.26512 6.82712 8.90791 7.09506 8.62884L7.89888 7.75814C8.11323 7.53488 8.274 7.32279 8.38117 7.13302C8.46692 6.98791 8.49907 6.86512 8.49907 6.75349C8.49907 6.66419 8.46692 6.53023 8.41333 6.39628C8.3383 6.21767 8.22041 6.01674 8.07036 5.80465L5.58388 2.14326C5.4767 1.98698 5.34809 1.87535 5.18733 1.79721C5.01584 1.71907 4.83364 1.67442 4.65145 1.67442ZM13.6114 15.36L13.4399 16.1191L13.7293 15.3377C13.6757 15.3265 13.6328 15.3377 13.6114 15.36Z" fill="white"/>
</svg>
