<svg width="14" height="14" viewBox="0 0 14 14" fill="none" xmlns="http://www.w3.org/2000/svg">
<path d="M1.75 5.31405V8.67988C1.75 9.91655 1.75 9.91655 2.91667 10.704L6.125 12.559C6.60917 12.839 7.39667 12.839 7.875 12.559L11.0833 10.704C12.25 9.91655 12.25 9.91655 12.25 8.68571V5.31405C12.25 4.08321 12.25 4.08321 11.0833 3.29571L7.875 1.44071C7.39667 1.16071 6.60917 1.16071 6.125 1.44071L2.91667 3.29571C1.75 4.08321 1.75 4.08321 1.75 5.31405Z" stroke="#292D32" stroke-linecap="round" stroke-linejoin="round"/>
<path d="M7 8.75C7.9665 8.75 8.75 7.9665 8.75 7C8.75 6.0335 7.9665 5.25 7 5.25C6.0335 5.25 5.25 6.0335 5.25 7C5.25 7.9665 6.0335 8.75 7 8.75Z" stroke="#292D32" stroke-linecap="round" stroke-linejoin="round"/>
</svg>
